# Blender v2.91.0 OBJ File: ''
# www.blender.org
mtllib doublePyramide.mtl
o Cone
v 0.000000 0.000000 -1.000000
v 1.000000 0.000000 0.000000
v -0.000000 0.000000 1.000000
v -1.000000 0.000000 -0.000000
v 0.000000 1.023075 0.000000
v -0.000000 -1.023075 -0.000000
vt 0.250000 0.490000
vt 0.250000 0.250000
vt 0.490000 0.250000
vt 0.250000 0.010000
vt 0.250000 0.490000
vt 0.010000 0.250000
vt 0.010000 0.250000
vt 0.250000 0.010000
vt 0.490000 0.250000
vn 0.5817 0.5686 -0.5817
vn 0.5817 0.5686 0.5817
vn 0.5817 -0.5686 -0.5817
vn -0.5817 0.5686 0.5817
vn -0.5817 0.5686 -0.5817
vn -0.5817 -0.5686 -0.5817
vn -0.5817 -0.5686 0.5817
vn 0.5817 -0.5686 0.5817
usemtl None
s off
f 1/1/1 5/2/1 2/3/1
f 2/3/2 5/2/2 3/4/2
f 1/1/3 2/3/3 6/5/3
f 3/4/4 5/2/4 4/6/4
f 4/6/5 5/2/5 1/1/5
f 4/6/6 1/1/6 6/7/6
f 3/4/7 4/6/7 6/8/7
f 2/3/8 3/4/8 6/9/8
