# Blender v2.91.0 OBJ File: ''
# www.blender.org
mtllib test.mtl
o Cube_Cube.001
v -1.000000 -1.000000 1.000000
v -0.439747 1.527868 0.439747
v -1.000000 -1.000000 -1.000000
v -0.439747 1.527868 -0.439747
v 0.225456 -0.328969 0.328969
v 0.225456 0.328969 0.328969
v 0.225456 -0.328969 -0.328969
v 0.225456 0.328969 -0.328969
v 0.439747 1.527868 -0.439747
v 1.000000 -1.000000 -1.000000
v 1.000000 -1.000000 1.000000
v 0.439747 1.527868 0.439747
v 2.929047 0.328969 -0.328969
v 2.929047 -0.328969 -0.328969
v 2.929047 -0.328969 0.328969
v 2.929047 0.328969 0.328969
v -1.000000 1.000000 1.000000
v -1.000000 1.000000 -1.000000
v 1.000000 1.000000 -1.000000
v 1.000000 1.000000 1.000000
v -1.268202 1.268202 -2.151423
v -1.268202 -1.268202 -2.151423
v 1.268202 -1.268202 -2.151423
v 1.268202 1.268202 -2.151423
v -0.886027 0.886027 -2.914945
v -0.886027 -0.886027 -2.914945
v 0.886027 -0.886027 -2.914945
v 0.886027 0.886027 -2.914945
v -1.045022 1.045022 -3.306750
v -1.045022 -1.045022 -3.306750
v 1.045022 -1.045022 -3.306750
v 1.045022 1.045022 -3.306750
v -0.300702 0.300702 -3.467887
v -0.300702 -0.300702 -3.467887
v 0.300702 -0.300702 -3.467887
v 0.300702 0.300702 -3.467887
v -1.045022 1.045022 -3.467887
v -1.045022 -1.045022 -3.467887
v 1.045022 -1.045022 -3.467887
v 1.045022 1.045022 -3.467887
v -0.300702 0.300702 -0.794933
v -0.300702 -0.300702 -0.794933
v 0.300702 -0.300702 -0.794933
v 0.300702 0.300702 -0.794933
vt 0.375000 0.000000
vt 0.625000 0.000000
vt 0.625000 0.250000
vt 0.375000 0.250000
vt 0.625000 0.500000
vt 0.375000 0.500000
vt 0.375000 0.500000
vt 0.625000 0.500000
vt 0.458879 0.583879
vt 0.541121 0.583879
vt 0.541121 0.583879
vt 0.458879 0.583879
vt 0.375000 0.750000
vt 0.625000 0.750000
vt 0.625000 1.000000
vt 0.375000 1.000000
vt 0.125000 0.500000
vt 0.125000 0.750000
vt 0.695032 0.570032
vt 0.804968 0.570032
vt 0.804968 0.679968
vt 0.695032 0.679968
vt 0.458879 0.666121
vt 0.541121 0.666121
vt 0.541121 0.666121
vt 0.458879 0.666121
vt 0.875000 0.500000
vt 0.875000 0.750000
vt 0.375000 0.500000
vt 0.625000 0.500000
vt 0.125000 0.500000
vt 0.875000 0.500000
vt 0.625000 0.250000
vt 0.375000 0.250000
vt 0.125000 0.500000
vt 0.125000 0.500000
vt 0.375000 0.500000
vt 0.875000 0.500000
vt 0.625000 0.250000
vt 0.375000 0.250000
vt 0.875000 0.500000
vt 0.625000 0.500000
vt 0.625000 0.500000
vt 0.875000 0.500000
vt 0.625000 0.250000
vt 0.375000 0.250000
vt 0.535968 0.339032
vt 0.535968 0.410968
vt 0.535968 0.410968
vt 0.535968 0.339032
vt 0.625000 0.250000
vt 0.375000 0.250000
vt 0.375000 0.500000
vt 0.125000 0.500000
vt 0.464032 0.339032
vt 0.464032 0.410968
vt 0.464032 0.339032
vt 0.464032 0.410968
vn -1.0000 0.0000 0.0000
vn 0.9739 0.0000 0.2269
vn 0.0000 0.0000 -1.0000
vn 0.0000 0.0000 1.0000
vn 0.0000 -1.0000 0.0000
vn 0.0000 1.0000 0.0000
vn 0.6548 0.0000 0.7558
vn 0.6548 0.7558 0.0000
vn 0.6548 -0.7558 0.0000
vn 0.6548 0.0000 -0.7558
vn 1.0000 0.0000 0.0000
vn -0.6858 0.7278 0.0000
vn 0.0000 0.7278 -0.6858
vn 0.6858 0.7278 0.0000
vn 0.0000 0.7278 0.6858
vn 0.8942 0.0000 -0.4476
vn 0.0000 -0.9739 0.2269
vn 0.0000 0.9739 0.2269
vn -0.9739 0.0000 0.2269
vn 0.0000 -0.9266 0.3760
vn 0.0000 -0.8942 -0.4476
vn 0.0000 0.8942 -0.4476
vn -0.8942 0.0000 -0.4476
vn 0.0000 0.9266 0.3760
vn -0.9266 0.0000 0.3760
vn 0.9266 0.0000 0.3760
usemtl None
s off
f 1/1/1 17/2/1 18/3/1 3/4/1
f 19/5/2 10/6/2 23/7/2 24/8/2
f 7/9/3 8/10/3 13/11/3 14/12/3
f 11/13/4 20/14/4 17/15/4 1/16/4
f 3/17/5 10/6/5 11/13/5 1/18/5
f 9/19/6 4/20/6 2/21/6 12/22/6
f 8/10/7 7/9/7 10/6/7 19/5/7
f 7/9/8 5/23/8 11/13/8 10/6/8
f 6/24/9 8/10/9 19/5/9 20/14/9
f 5/23/10 6/24/10 20/14/10 11/13/10
f 14/12/11 13/11/11 16/25/11 15/26/11
f 6/24/4 5/23/4 15/26/4 16/25/4
f 5/23/5 7/9/5 14/12/5 15/26/5
f 8/10/6 6/24/6 16/25/6 13/11/6
f 2/21/12 4/20/12 18/27/12 17/28/12
f 4/20/13 9/19/13 19/5/13 18/27/13
f 9/19/14 12/22/14 20/14/14 19/5/14
f 12/22/15 2/21/15 17/28/15 20/14/15
f 24/8/16 23/7/16 27/29/16 28/30/16
f 10/6/17 3/17/17 22/31/17 23/7/17
f 18/27/18 19/5/18 24/8/18 21/32/18
f 3/4/19 18/3/19 21/33/19 22/34/19
f 27/29/20 26/35/20 30/36/20 31/37/20
f 23/7/21 22/31/21 26/35/21 27/29/21
f 21/32/22 24/8/22 28/30/22 25/38/22
f 22/34/23 21/33/23 25/39/23 26/40/23
f 29/41/6 32/42/6 40/43/6 37/44/6
f 25/38/24 28/30/24 32/42/24 29/41/24
f 26/40/25 25/39/25 29/45/25 30/46/25
f 28/30/26 27/29/26 31/37/26 32/42/26
f 33/47/5 36/48/5 44/49/5 41/50/5
f 30/46/1 29/45/1 37/51/1 38/52/1
f 32/42/11 31/37/11 39/53/11 40/43/11
f 31/37/5 30/36/5 38/54/5 39/53/5
f 33/47/3 34/55/3 38/52/3 37/51/3
f 34/55/3 35/56/3 39/53/3 38/52/3
f 36/48/3 33/47/3 37/51/3 40/43/3
f 35/56/3 36/48/3 40/43/3 39/53/3
f 42/57/3 41/50/3 44/49/3 43/58/3
f 34/55/11 33/47/11 41/50/11 42/57/11
f 36/48/1 35/56/1 43/58/1 44/49/1
f 35/56/6 34/55/6 42/57/6 43/58/6
